<?xml version="1.0" ?><svg id="Layer_1" style="enable-background:new 0 0 250 250;" version="1.1" viewBox="0 0 250 250" xml:space="preserve" xmlns="http://www.w3.org/2000/svg" xmlns:xlink="http://www.w3.org/1999/xlink"><style type="text/css">
	.st0{fill:#FCC12D;}
	.st1{fill:#73D84A;}
	.st2{fill:#46E6F2;}
	.st3{fill:none;stroke:#231F20;stroke-width:3;stroke-linecap:round;stroke-linejoin:round;stroke-miterlimit:10;}
	.st4{fill:none;stroke:#FFFFFF;stroke-width:3;stroke-linecap:round;stroke-linejoin:round;stroke-miterlimit:10;}
	.st5{fill:#FFFFFF;}
</style><rect class="st0" height="14.7" id="XMLID_40_" width="38.9" x="109" y="53"/><polygon class="st1" id="XMLID_39_" points="147.9,57.3 147.9,67.7 109,67.7 109,57.3 67.4,57.3 67.4,148.1 189.4,148.1 189.4,57.3   "/><path class="st0" d="M191.3,148.1H65.6c-2.1,0-3.8,1.7-3.8,3.8v0.2c0,2.1,1.7,3.8,3.8,3.8h125.6  c2.1,0,3.8-1.7,3.8-3.8v-0.2C195,149.8,193.3,148.1,191.3,148.1z" id="XMLID_38_"/><rect class="st2" height="9.5" id="XMLID_37_" width="27.7" x="148.3" y="138.6"/><rect class="st3" height="14.7" id="XMLID_36_" width="38.9" x="105.7" y="49.7"/><polygon class="st3" id="XMLID_35_" points="144.7,54.1 144.7,64.4 105.7,64.4 105.7,54.1 64.2,54.1 64.2,144.9 186.2,144.9   186.2,54.1 "/><rect class="st4" height="9.5" id="XMLID_34_" width="27.7" x="145.1" y="135.4"/><g id="XMLID_32_"><polyline class="st3" id="XMLID_33_" points="159.1,193 145.5,152.7 104.9,152.7 91.3,193  "/></g><line class="st3" id="XMLID_31_" x1="100.1" x2="150.4" y1="169.1" y2="169.1"/><g id="XMLID_21_"><path class="st5" d="M109.7,109.1H99.5l-2.6,5.7H93l11.8-25.1l11.2,25.1h-3.9L109.7,109.1z M108.2,105.7l-3.5-8   l-3.7,8H108.2z" id="XMLID_28_"/><path class="st5" d="M124.1,91.1c3.1,0,5,0.4,6.5,1.8c1.3,1.2,1.9,2.7,1.9,4.7c0,0.9-0.1,1.9-0.7,2.8   c-0.5,0.9-1.2,1.4-1.8,1.6c0.4,0.1,1.9,0.5,3.1,1.7c1.3,1.4,1.6,3,1.6,4.4c0,1.7-0.4,3.1-1.6,4.3c-1.9,2-4.8,2.3-6.6,2.3h-5.9V91.1   H124.1z M124.1,101.3h1.1c0.9,0,2.1-0.1,2.9-0.9c0.8-0.8,0.9-1.9,0.9-2.7c0-0.7-0.1-1.6-0.9-2.3c-0.8-0.8-1.8-0.9-2.9-0.9h-1.2   V101.3z M124.1,111.4h2.2c1,0,2.7-0.2,3.6-0.9c0.7-0.6,1.2-1.6,1.2-2.6c0-1-0.4-1.9-1-2.5c-1-1-2.5-1.1-3.7-1.1h-2.3V111.4z" id="XMLID_24_"/><path class="st5" d="M158.1,96.6c-2.6-2.4-5.1-2.6-6.4-2.6c-5.2,0-8.6,3.8-8.6,9c0,5,3.6,8.9,8.7,8.9   c2.8,0,5-1.5,6.4-2.7v4.3c-2.4,1.4-4.9,1.8-6.5,1.8c-4.3,0-7-2-8.4-3.3c-2.8-2.6-3.8-5.6-3.8-9c0-4.4,1.8-7.4,3.8-9.3   c2.5-2.3,5.3-3.1,8.6-3.1c2.2,0,4.3,0.4,6.3,1.7V96.6z" id="XMLID_22_"/></g><path class="st3" d="M188,144.9H62.4c-2.1,0-3.8,1.7-3.8,3.8v0.2c0,2.1,1.7,3.8,3.8,3.8H188c2.1,0,3.8-1.7,3.8-3.8  v-0.2C191.8,146.6,190.1,144.9,188,144.9z" id="XMLID_20_"/></svg>